:SAMPLES-PER-SECOND 30
:FULLY-SPECIFIED
:DEGREES
1
root  35.08544381 36.5026459 -14.93212933 9.748714447 1.085339069 3.020810127
lowerback  -8.265370369 0.4730969369 2.108109474
upperback  -4.012700081 0.1503639966 -2.280620098
thorax  0.5003479719 -0.1195250005 -3.531699896
lowerneck  -16.81150055 1.935789943 1.448009968
upperneck  15.49769974 1.456650019 3.524090052
head  7.52779007 1.065140009 1.079980016
lclavicle  0 -4.497500157e-015 -2.743230041e-014
lhumerus  -43.99309921 24.75370026 71.84690094
lradius  -0.05009648949 -6.507048965e-006 27.88809776
lwrist  4.824992743e-007 -3.790274832e-007 -29.75209999
lhand  -3.541078858e-031 -36.85710144 -10.38479996
lfingers  90 7.125020027 -90
lthumb  94.73460388 -25.22747421 100.9968491
rclavicle  0 -4.497500157e-015 -2.743230041e-014
rhumerus  -53.62350082 -35.78300095 -56.00099945
rradius  -5.16745672e-007 2.214343908e-008 35.62400055
rwrist  1.380293725e-006 2.528095422e-007 -139.3939972
rhand  -3.018406318e-031 -2.854949951 -7.66711998
rfingers  -90 -7.125020027 -90
rthumb  -86.61206818 -7.981945038 -66.91036224
rfemur  -13.45100784 15.03273964 13.53745937
rtibia  -1.195771933 0.9121550322 21.79811668
rfoot  -0.9759660959 -18.6746788 -40.12702179
rtoes  4.138733864 19.58426476 -102.1819
lfemur  -11.42563248 -17.42389297 -18.11031914
ltibia  1.005898952 0.9930087924 17.05422401
lfoot  0.5489326715 -28.57937431 33.87961578
ltoes  -8.726770401 -18.06454468 -116.3255386
2
root  35.08544381 36.5026459 -14.92850687 9.752108574 1.066543221 3.020810127
lowerback  -8.265370369 0.479986012 2.122380018
upperback  -4.012700081 0.1583649963 -2.293649912
thorax  0.5003479719 -0.1195250005 -3.552609921
lowerneck  -16.80139923 1.925500035 1.464359999
upperneck  15.46619987 1.440129995 3.524189949
head  7.516069889 1.057919979 1.075030088
lclavicle  0 -4.497500157e-015 -2.743230041e-014
lhumerus  -43.98749924 24.76569939 71.82540131
lradius  -0.05009648949 -6.507048965e-006 27.87210083
lwrist  4.824992743e-007 -3.790274832e-007 -29.9375
lhand  -3.536459574e-031 -36.86159897 -10.43980026
lfingers  90 7.125020027 -90
lthumb  94.74829102 -25.28130341 101.0065842
rclavicle  0 -4.497500157e-015 -2.743230041e-014
rhumerus  -53.20209885 -35.25640106 -56.77719879
rradius  -5.16745672e-007 2.214343908e-008 36.03030014
rwrist  1.380293725e-006 2.528095422e-007 -140.2740021
rhand  -3.022129482e-031 -2.975209951 -7.610770226
rfingers  -90 -7.125020027 -90
rthumb  -86.61159515 -8.027599335 -67.02436829
rfemur  -13.45086098 15.0196743 13.52146912
rtibia  -1.195771933 0.899325192 21.79710007
rfoot  -0.9846229553 -18.71207619 -40.11915588
rtoes  4.186268806 19.57453918 -102.3237457
lfemur  -11.36220646 -17.39336586 -18.13998985
ltibia  1.047004104 1.016270399 16.96682358
lfoot  0.5565503836 -28.58260345 33.91201401
ltoes  -8.726770401 -18.06454468 -116.3342743
3
root  35.08544381 36.50144141 -14.9262601 9.765862465 1.051444769 3.020810127
lowerback  -8.265370369 0.4875792563 2.124800682
upperback  -4.006100178 0.1687059999 -2.306819916
thorax  0.5080839992 -0.1141719967 -3.567840099
lowerneck  -16.83009911 1.903949976 1.444149971
upperneck  15.48139954 1.402989984 3.577250004
head  7.526050091 1.043980002 1.092090011
lclavicle  0 -4.497500157e-015 -2.743230041e-014
lhumerus  -43.96369934 24.7446003 71.82659912
lradius  -0.05009648949 -6.507048965e-006 27.84160042
lwrist  4.824992743e-007 -3.790274832e-007 -30.11199951
lhand  -3.531037873e-031 -36.84140015 -10.50790024
lfingers  90 7.125020027 -90
lthumb  94.75327301 -25.34888458 100.9911423
rclavicle  0 -4.497500157e-015 -2.743230041e-014
rhumerus  -52.73400116 -34.58879852 -57.68099976
rradius  -5.16745672e-007 2.214343908e-008 36.51929855
rwrist  1.380293725e-006 2.528095422e-007 -141.1139984
rhand  -3.023995698e-031 -2.884380102 -7.58355999
rfingers  -90 -7.125020027 -90
rthumb  -86.58434296 -8.057315826 -66.9344635
rfemur  -13.49261093 15.02112865 13.50516224
rtibia  -1.195771933 0.9128451347 21.84262848
rfoot  -0.9910607934 -18.70135117 -40.07827377
rtoes  4.133481979 19.58533287 -102.1662292
lfemur  -11.30254555 -17.29582787 -18.17386627
ltibia  1.089848995 1.083619356 16.86433792
lfoot  0.5740816593 -28.67966461 33.93022156
ltoes  -8.730317116 -18.06454468 -116.3457108
4
root  35.08542879 36.50834692 -14.92424612 9.791707039 1.025251746 3.024353266
lowerback  -8.268429756 0.4958089292 2.118859768
upperback  -3.990819931 0.1820890009 -2.308840036
thorax  0.5229660273 -0.1062420011 -3.564419985
lowerneck  -16.81769943 1.895920038 1.433400035
upperneck  15.42549992 1.39301002 3.602969885
head  7.505390167 1.040660024 1.100430012
lclavicle  0 -4.497500157e-015 -2.743230041e-014
lhumerus  -43.92842865 24.76939011 71.84099579
lradius  -0.05009648949 -6.507048965e-006 27.86610222
lwrist  4.824992743e-007 -3.790274832e-007 -30.06809998
lhand  -3.539596488e-031 -36.8451004 -10.40429974
lfingers  90 7.125020027 -90
lthumb  94.7331543 -25.24698448 100.9857864
rclavicle  0 -4.497500157e-015 -2.743230041e-014
rhumerus  -52.19390106 -33.78250122 -58.667099
rradius  -5.16745672e-007 2.214343908e-008 37.10110092
rwrist  1.380293725e-006 2.528095422e-007 -141.9550018
rhand  -3.020280078e-031 -2.865639925 -7.639100075
rfingers  -90 -7.125020027 -90
rthumb  -86.60289764 -8.007206917 -66.91926575
rfemur  -13.5421629 15.06961155 13.49136448
rtibia  -1.195771933 0.9446303248 21.88237
rfoot  -1.001873493 -18.65194321 -40.08110046
rtoes  4.116659164 19.58874321 -102.1160507
lfemur  -11.3166666 -17.31734467 -18.1759758
ltibia  1.084412694 1.065071464 16.83796883
lfoot  0.5457032919 -28.61648369 33.9337883
ltoes  -8.709355354 -18.07439995 -116.2781296
